<svg width="60" height="62" viewBox="0 0 60 62" fill="none" xmlns="http://www.w3.org/2000/svg">
<path fill-rule="evenodd" clip-rule="evenodd" d="M27.0401 14.9421L27.6521 19.4762L26.1222 19.9916C24.1914 20.6421 22.32 22.3136 20.7106 24.3906C19.1564 26.3964 18.0142 28.5628 17.4419 29.9312C16.4608 33.0487 15.8884 36.1281 16.9032 39.386C17.7694 42.1664 19.865 44.1411 22.1272 45.4609C24.4389 46.8097 26.6115 47.2938 27.1768 47.3113C27.2022 47.3121 27.2354 47.3133 27.2762 47.3149C28.091 47.3458 31.8923 47.4899 35.5693 46.2214C37.4779 45.563 39.2387 44.5604 40.5299 43.066C41.7936 41.6034 42.7171 39.5455 42.7758 36.5443C42.9687 26.6799 35.8185 21.3535 32.2915 19.9542L31.0151 19.4479L31.155 14.9335C29.6321 14.2453 28.1004 14.5005 27.0401 14.9421ZM23.7657 12.317C25.4814 11.0552 30.0032 9.1938 34.2811 12.2413L35.1338 12.8487L35.0083 16.8983C39.6701 19.2791 46.902 25.6433 46.6873 36.6208C46.6121 40.4653 45.3947 43.4196 43.4903 45.6238C41.6133 47.7961 39.1789 49.1147 36.8451 49.9198C32.4431 51.4384 27.9942 51.2593 27.1546 51.2255C27.1123 51.2237 27.0791 51.2224 27.0556 51.2217C25.6723 51.1788 22.8662 50.4216 20.1556 48.8401C17.3956 47.2298 14.4252 44.5854 13.168 40.5496C11.7829 36.1032 12.6661 32.051 13.7375 28.6697L13.7623 28.5915L13.7936 28.5156C14.4736 26.8645 15.7976 24.3437 17.6181 21.9943C19.101 20.0806 21.036 18.1207 23.3602 16.9267L22.8308 13.0045L23.7657 12.317Z" fill="#252734"/>
<path d="M24.9887 18.4709L25.5814 14.6155L32.2824 12.9894L32.7676 17.2382L35.7391 19.137L42.4637 25.2558L45.0024 33.9186L44.1763 41.7604L36.9796 48.0916L24.8548 48.9597L17.1153 44.5063L14.052 37.2808L17.2674 26.2393L24.9887 18.4709Z" fill="#252734"/>
<path fill-rule="evenodd" clip-rule="evenodd" d="M41.0765 30.2271C41.6652 30.1766 42.2452 30.395 42.6545 30.8212L46.1722 34.4847L43.3502 37.1944L41.5092 35.2771L38.8758 39.1753C38.5335 39.6819 37.9741 39.9994 37.3636 40.0334C36.7532 40.0674 36.1619 39.814 35.7655 39.3484L33.1147 36.2353L29.3963 41.636C29.0543 42.1326 28.5024 42.4438 27.9005 42.4794C27.2986 42.515 26.7139 42.271 26.3158 41.8181L21.7752 36.652L21.0286 37.8536C20.7247 38.3427 20.2208 38.6731 19.6511 38.7567C19.0813 38.8403 18.5037 38.6687 18.0721 38.2875L13.9575 34.6534L16.5473 31.7211L18.9271 33.8229L19.843 32.3487C20.1698 31.8228 20.7262 31.4826 21.3432 31.4315C21.9603 31.3805 22.5651 31.6246 22.9738 32.0896L27.5973 37.35L31.3391 31.9155C31.6841 31.4145 32.2426 31.1024 32.8502 31.0713C33.4577 31.0402 34.0452 31.2935 34.4396 31.7567L37.0752 34.8519L39.6226 31.081C39.9534 30.5914 40.4877 30.2775 41.0765 30.2271Z" fill="white"/>
</svg>
