<svg width="309" height="158" viewBox="0 0 309 158" fill="none" xmlns="http://www.w3.org/2000/svg">
<path fill-rule="evenodd" clip-rule="evenodd" d="M526 223L263 486L2.66276e-06 223L263 -40L526 223ZM400.399 223L263 85.6006L125.601 223L263 360.399L400.399 223Z" fill="#F6F6F6" fill-opacity="0.46"/>
<path fill-rule="evenodd" clip-rule="evenodd" d="M471.996 239.741L263.54 448.197L55.0844 239.741L263.54 31.2854L471.996 239.741ZM372.444 239.741L263.54 130.837L154.636 239.741L263.54 348.645L372.444 239.741Z" fill="#F6F6F6"/>
<path fill-rule="evenodd" clip-rule="evenodd" d="M423.464 253.439L263.955 412.948L104.446 253.439L263.955 93.9302L423.464 253.439ZM347.287 253.439L263.955 170.107L180.623 253.439L263.955 336.771L347.287 253.439Z" fill="#F1F1F1"/>
</svg>
