<svg width="42" height="42" viewBox="0 0 42 42" fill="none" xmlns="http://www.w3.org/2000/svg">
<g opacity="0.2">
<circle cx="21" cy="21" r="20.5" fill="#343646" stroke="#585B67"/>
<path fill-rule="evenodd" clip-rule="evenodd" d="M17.5344 13.0666L18.4025 15.3315L17.6758 15.7839C16.7588 16.3547 15.9968 17.4451 15.4193 18.7129C14.8617 19.9372 14.5362 21.1941 14.4076 21.9699C14.2811 23.698 14.3608 25.3567 15.2813 26.9141C16.0669 28.2433 17.3887 29.0069 18.7168 29.4124C20.0739 29.8268 21.2539 29.8119 21.5477 29.7521C21.5609 29.7494 21.5782 29.746 21.5994 29.7418C22.0236 29.6585 24.0027 29.2699 25.7454 28.1675C26.65 27.5952 27.4365 26.8634 27.9207 25.9351C28.3946 25.0265 28.6204 23.8521 28.2852 22.2964C27.1832 17.1829 22.8449 15.3055 20.8546 15.0131L20.1343 14.9073L19.6566 12.5609C18.7869 12.3913 18.0277 12.7095 17.5344 13.0666ZM15.525 12.1109C16.2566 11.2508 18.3631 9.73956 20.9417 10.791L21.4557 11.0005L21.8842 13.1054C24.5796 13.766 29.0864 16.1689 30.3128 21.8594C30.7423 23.8522 30.474 25.525 29.7598 26.8943C29.0559 28.2438 27.9604 29.2207 26.8542 29.9204C24.7678 31.2402 22.4504 31.6896 22.0131 31.7745C21.991 31.7787 21.9737 31.7821 21.9615 31.7846C21.2425 31.931 19.7024 31.882 18.1111 31.3962C16.4908 30.9015 14.636 29.8988 13.4957 27.9695C12.2394 25.8439 12.2016 23.6455 12.3425 21.7702L12.3458 21.7268L12.3527 21.6839C12.5024 20.7491 12.8786 19.2871 13.5317 17.8531C14.0638 16.685 14.8235 15.438 15.8773 14.5388L15.1264 12.5795L15.525 12.1109Z" fill="#FFAFBC"/>
<path d="M16.9058 15.1372L16.742 13.0757L20.0016 11.4205L20.7695 13.5537L22.5341 14.1715L26.7492 16.5096L29.1144 20.6703L29.6433 24.8172L26.701 28.9607L20.5505 30.8855L16.0145 29.5303L13.5538 26.1752L13.868 20.0862L16.9058 15.1372Z" fill="#FFAFBC"/>
<path fill-rule="evenodd" clip-rule="evenodd" d="M26.6391 19.2438C26.9368 19.146 27.2626 19.1881 27.5257 19.3581L29.7871 20.82L28.661 22.5619L27.4776 21.7968L26.5936 24.129C26.4787 24.4321 26.2287 24.6641 25.9178 24.756C25.6069 24.8479 25.271 24.7891 25.0098 24.5972L23.2628 23.3138L22.0019 26.5534C21.886 26.8513 21.6391 27.0791 21.3329 27.1708C21.0266 27.2625 20.6952 27.2078 20.4346 27.0226L17.4624 24.91L17.2236 25.621C17.1264 25.9104 16.9066 26.1422 16.6228 26.2548C16.339 26.3673 16.02 26.3491 15.7509 26.205L13.1851 24.831L14.1643 23.0025L15.6482 23.7971L15.9413 22.9249C16.0458 22.6137 16.2915 22.3704 16.6037 22.2689C16.9158 22.1674 17.2576 22.2197 17.5252 22.4099L20.5516 24.561L21.8204 21.3011C21.9374 21.0005 22.1875 20.7715 22.4972 20.6814C22.807 20.5913 23.1409 20.6505 23.4009 20.8415L25.1378 22.1175L25.9929 19.8615C26.104 19.5686 26.3415 19.3415 26.6391 19.2438Z" fill="#343646"/>
</g>
</svg>
