<svg width="88" height="88" viewBox="0 0 88 88" fill="none" xmlns="http://www.w3.org/2000/svg">
<circle cx="43.5211" cy="43.5211" r="39.1097" transform="rotate(-5.98055 43.5211 43.5211)" fill="#343646" stroke="#585B67"/>
<path fill-rule="evenodd" clip-rule="evenodd" d="M35.4607 29.3198L37.5342 33.3981L36.26 34.3894C34.652 35.6405 33.4368 37.8357 32.6027 40.3274C31.7972 42.7336 31.4336 45.1555 31.3448 46.6362C31.4471 49.9028 31.9226 52.9987 33.9555 55.7393C35.6904 58.0783 38.3201 59.2511 40.8911 59.7508C43.5184 60.2614 45.729 60.0016 46.2684 59.8316C46.2927 59.824 46.3245 59.8142 46.3634 59.8022C47.1428 59.5626 50.7789 58.4445 53.8315 56.0341C55.4161 54.7829 56.7476 53.2555 57.4735 51.4188C58.1839 49.6212 58.3768 47.3738 57.4421 44.5213C54.3699 35.1455 45.8628 32.4762 42.0716 32.3188L40.6996 32.2619L39.3424 27.9541C37.6777 27.8068 36.3159 28.5531 35.4607 29.3198ZM31.5035 27.9218C32.7069 26.1647 36.3615 22.9157 41.4053 24.3813L42.4106 24.6734L43.6281 28.5377C48.8144 29.2472 57.741 32.8693 61.1599 43.3031C62.3572 46.9571 62.1825 50.1477 61.1119 52.8567C60.0567 55.5267 58.1936 57.5746 56.2561 59.1045C52.6015 61.9903 48.3426 63.2889 47.5388 63.534C47.4983 63.5463 47.4665 63.556 47.4441 63.5631C46.1241 63.979 43.2253 64.1899 40.1447 63.5912C37.008 62.9816 33.3315 61.4651 30.8132 58.07C28.0388 54.3296 27.5358 50.2128 27.4317 46.6673L27.4293 46.5853L27.4337 46.5034C27.531 44.7204 27.9493 41.9039 28.8928 39.0855C29.6612 36.7897 30.8414 34.3012 32.6416 32.4073L30.8478 28.8793L31.5035 27.9218Z" fill="#FFAFBC"/>
<path d="M34.6879 33.3278L33.9756 29.4927L39.765 25.747L41.6247 29.5978L45.0563 30.4101L53.423 33.9678L58.6775 41.308L60.4846 48.9834L55.7795 57.3344L44.62 62.1538L35.8446 60.5031L30.569 54.6927L29.9618 43.2085L34.6879 33.3278Z" fill="#FFAFBC"/>
<path fill-rule="evenodd" clip-rule="evenodd" d="M53.7537 39.1184C54.2929 38.8766 54.9124 38.8914 55.4394 39.1587L59.9688 41.4566L58.1988 44.9456L55.8283 43.743L54.6283 48.2917C54.4724 48.8829 54.0489 49.3671 53.4839 49.6006C52.9188 49.8341 52.2771 49.7899 51.7493 49.4812L48.2199 47.4169L46.4913 53.742C46.3323 54.3236 45.914 54.7994 45.3575 55.0316C44.801 55.2638 44.1685 55.2263 43.6434 54.9301L37.6527 51.5512L37.3443 52.9319C37.2188 53.4939 36.852 53.972 36.3418 54.2389C35.8315 54.5057 35.2296 54.5342 34.6965 54.3168L29.6133 52.2436L31.0907 48.6211L34.0306 49.8201L34.4089 48.1263C34.5439 47.522 34.957 47.0173 35.5226 46.7655C36.0883 46.5138 36.7397 46.5447 37.279 46.8488L43.3791 50.2894L45.1185 43.9248C45.2789 43.3379 45.7032 42.8591 46.2665 42.6293C46.8298 42.3995 47.4679 42.4448 47.993 42.7519L51.5022 44.8044L52.663 40.4042C52.8137 39.8329 53.2146 39.3603 53.7537 39.1184Z" fill="#343646"/>
</svg>
