<svg width="25" height="25" viewBox="0 0 25 25" fill="none" xmlns="http://www.w3.org/2000/svg">
<g opacity="0.05">
<circle cx="12.5" cy="12.5" r="12" fill="#343646" stroke="#585B67"/>
<path fill-rule="evenodd" clip-rule="evenodd" d="M10.4371 7.77766L10.9539 9.12587L10.5213 9.39512C9.97549 9.73489 9.5219 10.384 9.17819 11.1386C8.84626 11.8673 8.65252 12.6155 8.57595 13.0773C8.50065 14.1059 8.54811 15.0932 9.09603 16.0203C9.56364 16.8114 10.3504 17.266 11.141 17.5073C11.9488 17.754 12.6511 17.7451 12.826 17.7095C12.8339 17.7079 12.8442 17.7059 12.8568 17.7034C13.1093 17.6538 14.2873 17.4225 15.3247 16.7663C15.8631 16.4257 16.3313 15.9901 16.6195 15.4375C16.9016 14.8966 17.036 14.1976 16.8364 13.2716C16.1805 10.2279 13.5982 9.11036 12.4134 8.93632L11.9847 8.87334L11.7004 7.47667C11.1827 7.3757 10.7308 7.56515 10.4371 7.77766ZM9.24111 7.2088C9.67658 6.69686 10.9304 5.7973 12.4653 6.42314L12.7712 6.54788L13.0263 7.80075C14.6307 8.19398 17.3134 9.62431 18.0433 13.0115C18.299 14.1977 18.1393 15.1934 17.7142 16.0084C17.2952 16.8117 16.6431 17.3932 15.9847 17.8097C14.7428 18.5953 13.3634 18.8628 13.103 18.9133C13.0899 18.9159 13.0796 18.9179 13.0723 18.9193C12.6444 19.0065 11.7276 18.9774 10.7804 18.6882C9.81595 18.3937 8.71191 17.7968 8.03316 16.6485C7.28537 15.3832 7.26284 14.0746 7.34675 12.9584L7.34869 12.9326L7.35278 12.907C7.44193 12.3506 7.66582 11.4804 8.05462 10.6268C8.37131 9.93152 8.82352 9.18926 9.45081 8.65401L9.00383 7.48774L9.24111 7.2088Z" fill="#FFAFBC"/>
<path d="M10.5052 8.568L10.4077 7.3409L12.3479 6.35563L12.805 7.6254L13.8554 7.99316L16.3644 9.3849L17.7722 11.8615L18.087 14.3299L16.3357 16.7962L12.6747 17.942L9.97468 17.1353L8.50994 15.1382L8.69696 11.5138L10.5052 8.568Z" fill="#FFAFBC"/>
<path fill-rule="evenodd" clip-rule="evenodd" d="M15.8567 11.4546C16.0339 11.3964 16.2278 11.4214 16.3844 11.5227L17.7305 12.3928L17.0602 13.4297L16.3558 12.9743L15.8296 14.3625C15.7612 14.5429 15.6124 14.681 15.4273 14.7357C15.2423 14.7904 15.0423 14.7554 14.8868 14.6412L13.847 13.8772L13.0965 15.8056C13.0274 15.9829 12.8805 16.1185 12.6982 16.1731C12.5159 16.2276 12.3186 16.1951 12.1635 16.0848L10.3944 14.8274L10.2522 15.2506C10.1943 15.4228 10.0635 15.5608 9.89458 15.6278C9.72566 15.6948 9.53581 15.6839 9.37561 15.5982L7.84837 14.7803L8.43119 13.6919L9.31449 14.1649L9.48892 13.6457C9.55115 13.4605 9.69739 13.3157 9.88321 13.2553C10.069 13.1949 10.2725 13.226 10.4317 13.3392L12.2332 14.6196L12.9884 12.6792C13.058 12.5003 13.2069 12.3639 13.3913 12.3103C13.5756 12.2567 13.7744 12.2919 13.9292 12.4056L14.9631 13.1652L15.4721 11.8223C15.5381 11.6479 15.6795 11.5128 15.8567 11.4546Z" fill="#343646"/>
</g>
</svg>
