<svg width="150" height="140" viewBox="0 0 150 140" fill="none" xmlns="http://www.w3.org/2000/svg">
<path opacity="0.35" fill-rule="evenodd" clip-rule="evenodd" d="M110.328 136.112C110.328 134.017 112.035 132.31 114.13 132.31C116.224 132.31 117.931 134.017 117.931 136.112C117.931 138.206 116.224 139.913 114.13 139.913C112.035 139.939 110.328 138.232 110.328 136.112ZM142.268 136.112C142.268 134.017 143.974 132.31 146.069 132.31C148.164 132.31 149.871 134.017 149.871 136.112C149.871 138.206 148.164 139.913 146.069 139.913C143.974 139.913 142.268 138.232 142.268 136.112ZM82.1641 132.31C80.0693 132.31 78.3624 134.017 78.3624 136.112C78.3624 138.232 80.0693 139.939 82.1641 139.913C84.259 139.913 85.9659 138.206 85.9659 136.112C85.9659 134.017 84.259 132.31 82.1641 132.31ZM46.4228 136.112C46.4228 134.017 48.1297 132.31 50.2245 132.31C52.3193 132.31 54.0262 134.017 54.0262 136.112C54.0262 138.206 52.3193 139.913 50.2245 139.913C48.1297 139.939 46.4228 138.232 46.4228 136.112ZM18.259 132.31C16.1641 132.31 14.4572 134.017 14.4572 136.112C14.4572 138.232 16.1641 139.939 18.259 139.913C20.3538 139.913 22.0607 138.206 22.0607 136.112C22.0607 134.017 20.3538 132.31 18.259 132.31ZM142.268 107.379C142.268 105.284 143.974 103.577 146.069 103.577C148.164 103.577 149.871 105.284 149.871 107.379C149.871 109.474 148.164 111.181 146.069 111.181C143.974 111.181 142.268 109.5 142.268 107.379ZM114.13 103.577C112.035 103.577 110.328 105.284 110.328 107.379C110.328 109.5 112.035 111.206 114.13 111.181C116.224 111.181 117.931 109.474 117.931 107.379C117.931 105.284 116.224 103.577 114.13 103.577ZM78.3624 107.379C78.3624 105.284 80.0693 103.577 82.1641 103.577C84.259 103.577 85.9659 105.284 85.9659 107.379C85.9659 109.474 84.259 111.181 82.1641 111.181C80.0693 111.206 78.3624 109.5 78.3624 107.379ZM50.2245 103.577C48.1297 103.577 46.4228 105.284 46.4228 107.379C46.4228 109.5 48.1297 111.206 50.2245 111.181C52.3193 111.181 54.0262 109.474 54.0262 107.379C54.0262 105.284 52.3193 103.577 50.2245 103.577ZM14.4572 107.379C14.4572 105.284 16.1641 103.577 18.259 103.577C20.3538 103.577 22.0607 105.284 22.0607 107.379C22.0607 109.474 20.3538 111.181 18.259 111.181C16.1641 111.206 14.4572 109.5 14.4572 107.379ZM146.069 74.8703C143.974 74.8703 142.268 76.5772 142.268 78.672C142.268 80.7668 143.974 82.4737 146.069 82.4737C148.164 82.4737 149.871 80.7668 149.871 78.672C149.871 76.5772 148.164 74.8703 146.069 74.8703ZM110.328 78.672C110.328 76.5772 112.035 74.8703 114.13 74.8703C116.224 74.8703 117.931 76.5772 117.931 78.672C117.931 80.7668 116.224 82.4737 114.13 82.4737C112.035 82.4737 110.328 80.7668 110.328 78.672ZM82.1641 74.8703C80.0693 74.8703 78.3624 76.5772 78.3624 78.672C78.3624 80.7668 80.0693 82.4737 82.1641 82.4737C84.259 82.4737 85.9659 80.7668 85.9659 78.672C85.9659 76.5772 84.259 74.8703 82.1641 74.8703ZM46.4228 78.672C46.4228 76.5772 48.1297 74.8703 50.2245 74.8703C52.3193 74.8703 54.0262 76.5772 54.0262 78.672C54.0262 80.7668 52.3193 82.4737 50.2245 82.4737C48.1297 82.4737 46.4228 80.7668 46.4228 78.672ZM18.259 74.8703C16.1641 74.8703 14.4572 76.5772 14.4572 78.672C14.4572 80.7668 16.1641 82.4737 18.259 82.4737C20.3538 82.4737 22.0607 80.7668 22.0607 78.672C22.0607 76.5772 20.3538 74.8703 18.259 74.8703ZM142.268 49.9392C142.268 47.8444 143.974 46.1375 146.069 46.1375C148.164 46.1375 149.871 47.8444 149.871 49.9392C149.871 52.0341 148.164 53.741 146.069 53.741C143.974 53.741 142.268 52.0599 142.268 49.9392ZM114.13 46.1375C112.035 46.1375 110.328 47.8444 110.328 49.9392C110.328 52.0599 112.035 53.7668 114.13 53.741C116.224 53.741 117.931 52.0341 117.931 49.9392C117.931 47.8444 116.224 46.1375 114.13 46.1375ZM78.3624 49.9392C78.3624 47.8444 80.0693 46.1375 82.1641 46.1375C84.259 46.1375 85.9659 47.8444 85.9659 49.9392C85.9659 52.0341 84.259 53.741 82.1641 53.741C80.0693 53.7668 78.3624 52.0599 78.3624 49.9392ZM50.2245 46.1375C48.1297 46.1375 46.4228 47.8444 46.4228 49.9392C46.4228 52.0599 48.1297 53.7668 50.2245 53.741C52.3193 53.741 54.0262 52.0341 54.0262 49.9392C54.0262 47.8444 52.3193 46.1375 50.2245 46.1375ZM14.4572 49.9392C14.4572 47.8444 16.1641 46.1375 18.259 46.1375C20.3538 46.1375 22.0607 47.8444 22.0607 49.9392C22.0607 52.0341 20.3538 53.741 18.259 53.741C16.1641 53.7668 14.4572 52.0599 14.4572 49.9392ZM146.069 17.4306C143.974 17.4306 142.268 19.1116 142.268 21.2323C142.268 23.3272 143.974 25.0341 146.069 25.0341C148.164 25.0341 149.871 23.3272 149.871 21.2323C149.871 19.1375 148.164 17.4306 146.069 17.4306ZM110.328 21.2323C110.328 19.1116 112.035 17.4306 114.13 17.4306C116.224 17.4306 117.931 19.1375 117.931 21.2323C117.931 23.3272 116.224 25.0341 114.13 25.0341C112.035 25.0341 110.328 23.3272 110.328 21.2323ZM82.1641 17.4306C80.0693 17.4306 78.3624 19.1116 78.3624 21.2323C78.3624 23.3272 80.0693 25.0341 82.1641 25.0341C84.259 25.0341 85.9659 23.3272 85.9659 21.2323C85.9659 19.1375 84.259 17.4306 82.1641 17.4306ZM46.4228 21.2323C46.4228 19.1116 48.1297 17.4306 50.2245 17.4306C52.3193 17.4306 54.0262 19.1375 54.0262 21.2323C54.0262 23.3272 52.3193 25.0341 50.2245 25.0341C48.1297 25.0341 46.4228 23.3272 46.4228 21.2323ZM18.259 17.4306C16.1641 17.4306 14.4572 19.1116 14.4572 21.2323C14.4572 23.3272 16.1641 25.0341 18.259 25.0341C20.3538 25.0341 22.0607 23.3272 22.0607 21.2323C22.0607 19.1375 20.3538 17.4306 18.259 17.4306Z" fill="#8291A9" fill-opacity="0.51"/>
<rect x="44.1728" y="44.172" width="44.1724" height="44.1724" transform="rotate(-180 44.1728 44.172)" fill="#2B2D3C"/>
</svg>
