<svg width="43" height="73" viewBox="0 0 43 73" fill="none" xmlns="http://www.w3.org/2000/svg">
<path opacity="0.35" fill-rule="evenodd" clip-rule="evenodd" d="M38.3611 64.0212C38.3611 65.0402 39.1914 65.8705 40.2104 65.8705C41.242 65.8705 42.0723 65.0402 42.0597 64.0212C42.0597 63.0022 41.2294 62.1719 40.2104 62.1719C39.1914 62.1719 38.3611 63.0022 38.3611 64.0212ZM40.2104 50.3211C39.1914 50.3211 38.3611 49.4908 38.3611 48.4718C38.3611 47.4528 39.1914 46.6225 40.2104 46.6225C41.2294 46.6225 42.0597 47.4528 42.0597 48.4718C42.0723 49.4908 41.242 50.3211 40.2104 50.3211ZM38.3611 32.9352C38.3611 33.9542 39.1914 34.7845 40.2104 34.7845C41.242 34.7845 42.0723 33.9542 42.0597 32.9352C42.0597 31.9162 41.2294 31.0859 40.2104 31.0859C39.1914 31.0859 38.3611 31.9162 38.3611 32.9352ZM40.2104 19.2352C39.1914 19.2352 38.3611 18.4049 38.3611 17.3859C38.3611 16.3669 39.1914 15.5366 40.2104 15.5366C41.2294 15.5366 42.0597 16.3669 42.0597 17.3859C42.0723 18.4049 41.242 19.2352 40.2104 19.2352ZM40.2102 3.6986C39.1912 3.6986 38.3609 2.8683 38.3609 1.8493C38.3609 0.830299 39.1912 -1.2539e-07 40.2102 -8.08483e-08C41.2292 -3.63062e-08 42.0595 0.830299 42.0595 1.8493C42.0595 2.8683 41.2418 3.6986 40.2102 3.6986ZM26.2335 3.6986C25.2145 3.6986 24.3842 2.8683 24.3842 1.8493C24.3842 0.830298 25.2145 -7.36333e-07 26.2335 -6.91791e-07C27.2525 -6.47249e-07 28.0828 0.830298 28.0828 1.8493C28.0828 2.8683 27.2651 3.6986 26.2335 3.6986ZM24.384 17.3859C24.384 18.4049 25.2143 19.2352 26.2333 19.2352C27.2649 19.2352 28.0952 18.4049 28.0826 17.3859C28.0826 16.3669 27.2523 15.5366 26.2333 15.5366C25.2143 15.5366 24.384 16.3669 24.384 17.3859ZM26.2333 34.7845C25.2143 34.7845 24.384 33.9542 24.384 32.9352C24.384 31.9162 25.2143 31.0859 26.2333 31.0859C27.2523 31.0859 28.0826 31.9162 28.0826 32.9352C28.0952 33.9542 27.2649 34.7845 26.2333 34.7845ZM24.384 48.4718C24.384 49.4908 25.2143 50.3211 26.2333 50.3211C27.2649 50.3211 28.0952 49.4908 28.0826 48.4718C28.0826 47.4528 27.2523 46.6225 26.2333 46.6225C25.2143 46.6225 24.384 47.4528 24.384 48.4718ZM26.2333 65.8705C25.2143 65.8705 24.384 65.0402 24.384 64.0212C24.384 63.0022 25.2143 62.1719 26.2333 62.1719C27.2523 62.1719 28.0826 63.0022 28.0826 64.0212C28.0952 65.0402 27.2649 65.8705 26.2333 65.8705ZM10.4202 1.8493C10.4202 2.8683 11.2504 3.6986 12.2695 3.6986C13.2885 3.6986 14.1188 2.8683 14.1188 1.8493C14.1188 0.830298 13.2885 -1.25764e-06 12.2695 -1.30218e-06C11.2504 -1.34672e-06 10.4202 0.830298 10.4202 1.8493ZM12.2695 19.2352C11.2504 19.2352 10.4201 18.4049 10.4201 17.3859C10.4202 16.3669 11.2504 15.5366 12.2695 15.5366C13.2885 15.5366 14.1188 16.3669 14.1188 17.3859C14.1188 18.4049 13.2885 19.2352 12.2695 19.2352ZM10.4201 32.9352C10.4201 33.9542 11.2504 34.7845 12.2694 34.7845C13.2885 34.7845 14.1188 33.9542 14.1188 32.9352C14.1188 31.9162 13.2885 31.0859 12.2694 31.0859C11.2504 31.0859 10.4201 31.9162 10.4201 32.9352ZM12.2694 50.3211C11.2504 50.3211 10.4201 49.4908 10.4201 48.4718C10.4201 47.4528 11.2504 46.6225 12.2694 46.6225C13.2885 46.6225 14.1188 47.4528 14.1188 48.4718C14.1188 49.4908 13.2885 50.3211 12.2694 50.3211ZM10.4201 64.0212C10.4201 65.0402 11.2504 65.8705 12.2694 65.8705C13.2885 65.8705 14.1188 65.0402 14.1188 64.0212C14.1188 63.0022 13.2885 62.1719 12.2694 62.1719C11.2504 62.1719 10.4201 63.0022 10.4201 64.0212ZM-1.7069 3.6986C-2.72591 3.6986 -3.55621 2.8683 -3.55621 1.8493C-3.55621 0.830297 -2.72591 -1.95765e-06 -1.7069 -1.9131e-06C-0.687901 -1.86856e-06 0.142399 0.830297 0.142399 1.8493C0.142399 2.8683 -0.67532 3.6986 -1.7069 3.6986ZM-3.55635 17.3859C-3.55635 18.4049 -2.72605 19.2352 -1.70704 19.2352C-0.675462 19.2352 0.154838 18.4049 0.142257 17.3859C0.142257 16.3669 -0.688042 15.5366 -1.70704 15.5366C-2.72605 15.5366 -3.55635 16.3669 -3.55635 17.3859ZM-1.70704 34.7845C-2.72605 34.7845 -3.55635 33.9542 -3.55635 32.9352C-3.55635 31.9162 -2.72605 31.0859 -1.70704 31.0859C-0.688043 31.0859 0.142256 31.9162 0.142256 32.9352C0.154837 33.9542 -0.675462 34.7845 -1.70704 34.7845ZM-3.55635 48.4718C-3.55635 49.4908 -2.72605 50.3211 -1.70704 50.3211C-0.675463 50.3211 0.154836 49.4908 0.142256 48.4718C0.142256 47.4528 -0.688044 46.6225 -1.70704 46.6225C-2.72605 46.6225 -3.55635 47.4528 -3.55635 48.4718ZM-1.70705 65.8705C-2.72605 65.8705 -3.55635 65.0402 -3.55635 64.0212C-3.55635 63.0022 -2.72605 62.1719 -1.70705 62.1719C-0.688044 62.1719 0.142255 63.0022 0.142255 64.0212C0.154836 65.0402 -0.675464 65.8705 -1.70705 65.8705ZM-17.5206 1.8493C-17.5206 2.8683 -16.7029 3.6986 -15.6713 3.6986C-14.6523 3.6986 -13.822 2.8683 -13.822 1.8493C-13.822 0.830297 -14.6523 -2.47896e-06 -15.6713 -2.52351e-06C-16.6903 -2.56805e-06 -17.5206 0.830297 -17.5206 1.8493ZM-15.6713 19.2352C-16.7029 19.2352 -17.5206 18.4049 -17.5206 17.3859C-17.5206 16.3669 -16.6903 15.5366 -15.6713 15.5366C-14.6523 15.5366 -13.822 16.3669 -13.822 17.3859C-13.822 18.4049 -14.6523 19.2352 -15.6713 19.2352ZM-17.5206 32.9352C-17.5206 33.9542 -16.7029 34.7845 -15.6713 34.7845C-14.6523 34.7845 -13.822 33.9542 -13.822 32.9352C-13.822 31.9162 -14.6523 31.0859 -15.6713 31.0859C-16.6903 31.0859 -17.5206 31.9162 -17.5206 32.9352ZM-15.6713 50.3211C-16.7029 50.3211 -17.5206 49.4908 -17.5206 48.4718C-17.5206 47.4528 -16.6903 46.6225 -15.6713 46.6225C-14.6523 46.6225 -13.822 47.4528 -13.822 48.4718C-13.822 49.4908 -14.6523 50.3211 -15.6713 50.3211ZM-17.5206 64.0212C-17.5206 65.0402 -16.7029 65.8705 -15.6713 65.8705C-14.6523 65.8705 -13.822 65.0402 -13.822 64.0212C-13.822 63.0022 -14.6523 62.1719 -15.6713 62.1719C-16.6903 62.1719 -17.5206 63.0022 -17.5206 64.0212Z" fill="#8291A9" fill-opacity="0.51"/>
</svg>
