<svg width="51" height="51" viewBox="0 0 51 51" fill="none" xmlns="http://www.w3.org/2000/svg">
<circle cx="25.5" cy="25.5" r="25" fill="#343646" stroke="#585B67"/>
<path d="M34.5237 22.7071C33.9798 21.483 33.1892 20.3843 32.2012 19.4797L31.386 18.7317C31.3583 18.707 31.325 18.6895 31.2889 18.6807C31.2529 18.6718 31.2153 18.672 31.1793 18.6811C31.1434 18.6903 31.1102 18.7081 31.0827 18.733C31.0553 18.758 31.0343 18.7893 31.0218 18.8242L30.6576 19.8691C30.4307 20.5247 30.0132 21.1942 29.4221 21.8526C29.3829 21.8946 29.3381 21.9058 29.3073 21.9086C29.2764 21.9114 29.2288 21.9058 29.1868 21.8666C29.1476 21.833 29.128 21.7826 29.1308 21.7321C29.2344 20.0456 28.7301 18.1434 27.6263 16.0731C26.7131 14.353 25.444 13.011 23.8583 12.0753L22.7013 11.3946C22.55 11.3049 22.3567 11.4226 22.3651 11.5991L22.4267 12.9438C22.4688 13.8627 22.3623 14.6751 22.1102 15.3503C21.802 16.1767 21.3594 16.9444 20.7935 17.6335C20.3996 18.1125 19.9533 18.5457 19.4627 18.925C18.2814 19.8332 17.3207 20.9968 16.6528 22.3289C15.9865 23.6725 15.6395 25.1518 15.6387 26.6516C15.6387 27.9739 15.8992 29.2542 16.4147 30.4617C16.9124 31.6242 17.6307 32.6793 18.5298 33.5685C19.4375 34.465 20.4909 35.171 21.6647 35.6613C22.8806 36.1711 24.1693 36.4289 25.5 36.4289C26.8307 36.4289 28.1194 36.1711 29.3353 35.6641C30.5062 35.1767 31.571 34.4659 32.4702 33.5713C33.3779 32.6749 34.0894 31.6271 34.5853 30.4645C35.1 29.2603 35.364 27.9639 35.3613 26.6544C35.3613 25.2873 35.0812 23.9593 34.5237 22.7071Z" fill="#B34540"/>
</svg>
