<svg width="42" height="42" viewBox="0 0 42 42" fill="none" xmlns="http://www.w3.org/2000/svg">
<circle cx="21" cy="21" r="20.5" fill="#343646" stroke="#585B67"/>
<path d="M30.4823 17.6992C30.1731 16.9831 29.7271 16.3342 29.1695 15.7889C28.6115 15.2419 27.9536 14.8072 27.2316 14.5084C26.4828 14.1974 25.6798 14.0382 24.8691 14.0401C23.7316 14.0401 22.6219 14.3515 21.6575 14.9398C21.4268 15.0806 21.2076 15.2351 21 15.4036C20.7924 15.2351 20.5732 15.0806 20.3425 14.9398C19.3781 14.3515 18.2684 14.0401 17.1309 14.0401C16.3119 14.0401 15.5183 14.1969 14.7684 14.5084C14.044 14.8083 13.3911 15.2398 12.8305 15.7889C12.2721 16.3336 11.8261 16.9827 11.5177 17.6992C11.197 18.4444 11.0332 19.2357 11.0332 20.0501C11.0332 20.8184 11.1901 21.619 11.5016 22.4334C11.7623 23.114 12.136 23.82 12.6136 24.5329C13.3703 25.6611 14.4108 26.8377 15.7028 28.0305C17.8438 30.0077 19.9641 31.3735 20.0541 31.4289L20.6009 31.7796C20.8431 31.9341 21.1546 31.9341 21.3968 31.7796L21.9436 31.4289C22.0336 31.3712 24.1515 30.0077 26.2949 28.0305C27.5869 26.8377 28.6274 25.6611 29.3841 24.5329C29.8617 23.82 30.2377 23.114 30.4961 22.4334C30.8076 21.619 30.9645 20.8184 30.9645 20.0501C30.9668 19.2357 30.803 18.4444 30.4823 17.6992Z" fill="#65BE7F"/>
</svg>
