<svg width="152" height="40" viewBox="0 0 152 40" fill="none" xmlns="http://www.w3.org/2000/svg">
<path d="M28.8651 20.8735C28.8749 20.6801 28.8042 20.4906 28.6726 20.3485C28.5391 20.2084 28.3545 20.1275 28.1601 20.1295C27.6809 20.1315 27.2057 19.9617 26.8286 19.6381C26.267 19.1586 26.0097 18.4086 26.1511 17.6824C28.1169 7.65934 27.2233 2.80075 26.5085 0.787843C26.3907 0.454333 26.1275 0.189892 25.7937 0.0714861C25.4618 -0.0488934 25.0926 -0.0113981 24.7902 0.172131C22.8931 1.3187 18.9969 4.40515 15.9176 11.5845C15.466 11.3753 14.9632 11.2569 14.433 11.2569C13.9028 11.2569 13.4 11.3753 12.9484 11.5845C9.8691 4.40318 5.97092 1.31672 4.07584 0.170158C3.77341 -0.0133716 3.40422 -0.0508669 3.07233 0.0695127C2.73848 0.189892 2.47533 0.452359 2.3575 0.78587C1.64267 2.80075 0.749137 7.65934 2.71492 17.6824C2.85828 18.4086 2.59905 19.1586 2.0374 19.6381C1.66035 19.9617 1.1851 20.1315 0.705934 20.1295C0.51348 20.1275 0.326917 20.2084 0.193378 20.3485C0.0598384 20.4906 -0.00889516 20.6781 0.000923923 20.8735C0.0892956 22.5055 0.74521 26.184 4.58447 29.7263C5.0008 30.1111 5.44855 30.4782 5.90415 30.8097C6.10643 30.9577 6.39511 31.1768 6.73877 31.4649C8.73008 33.1324 10.3365 35.2421 11.4068 37.6141C11.5383 37.9062 11.8309 38.4726 12.3003 38.9837C12.8384 39.6093 13.5945 40 14.4291 40C14.431 40 14.431 40 14.431 40C15.2657 40 16.0198 39.6093 16.5579 38.9857C17.0292 38.4765 17.3218 37.9082 17.4534 37.6161C18.5236 35.244 20.13 33.1344 22.1213 31.4669C22.465 31.1787 22.7537 30.9597 22.956 30.8117C23.4116 30.4782 23.8593 30.1111 24.2756 29.7283C28.1188 26.184 28.7767 22.5055 28.8651 20.8735ZM17.7931 25.5031C18.1191 25.5031 18.3822 25.7676 18.3822 26.0952C18.3822 26.4228 18.1171 26.6872 17.7931 26.6872C17.4671 26.6872 17.2039 26.4228 17.2039 26.0952C17.2039 25.7676 17.4691 25.5031 17.7931 25.5031ZM14.2857 20.2183C14.3152 20.163 14.3721 20.1275 14.433 20.1275C14.4939 20.1275 14.5528 20.1611 14.5803 20.2183C15.0752 21.1715 15.6859 24.0467 15.6859 24.9506C15.6859 25.8544 15.0771 28.7297 14.5803 29.6809C14.5508 29.7362 14.4939 29.7717 14.433 29.7717C14.3721 29.7717 14.3132 29.7381 14.2857 29.6809C13.7908 28.7277 13.1801 25.8524 13.1801 24.9506C13.1801 24.0448 13.7908 21.1695 14.2857 20.2183ZM11.0729 25.5031C11.3989 25.5031 11.6621 25.7676 11.6621 26.0952C11.6621 26.4228 11.3989 26.6872 11.0729 26.6872C10.7469 26.6872 10.4838 26.4228 10.4838 26.0952C10.4838 25.7676 10.7469 25.5031 11.0729 25.5031ZM4.67677 17.2423L4.39987 17.5936C4.36845 17.6331 4.31739 17.6508 4.26829 17.639C4.2192 17.6272 4.18189 17.5877 4.17207 17.5364C2.82293 10.6688 3.04877 7.29031 3.30799 5.88128C3.35119 5.64644 3.46313 5.45699 3.61827 5.36424C3.77145 5.27346 3.95016 5.28925 4.10137 5.40568C4.95956 6.0727 7.26704 9.18876 9.02466 13.4395L9.09732 13.6152C9.12285 13.6783 9.09732 13.7513 9.03644 13.7829C8.68884 13.9585 8.36089 14.1421 8.05453 14.3276C7.87582 14.4361 7.64802 14.4223 7.48306 14.2901C7.15118 14.0237 6.79572 13.8026 6.42849 13.631C6.19676 13.5224 5.95128 13.6329 5.88059 13.8796C5.69795 14.5072 5.62922 15.186 5.68617 15.8807C5.69795 16.0287 5.64493 16.1747 5.53888 16.2793C5.16969 16.6483 4.88493 16.9799 4.67677 17.2423ZM12.9032 33.0614C12.5635 32.6588 12.1255 32.2405 11.6424 32.0332C10.8471 31.6899 10.038 31.4195 9.33887 30.8808C8.2568 30.0519 7.6382 28.8363 7.28275 27.52C7.1551 27.0503 6.80947 26.5629 6.48544 26.184C6.43438 26.1248 6.43046 26.036 6.47759 25.9748C6.52472 25.9116 6.60916 25.8939 6.67593 25.9294C8.13308 26.7168 9.46259 27.7469 10.5937 28.9764C10.8392 29.2448 11.0768 29.5211 11.3027 29.8072C12.047 30.7426 12.6813 31.7826 13.1663 32.8877C13.1997 32.9608 13.1742 33.0496 13.1094 33.093C13.0426 33.1364 12.9543 33.1245 12.9032 33.0614ZM15.735 36.8642C15.6997 36.9589 15.625 37.032 15.5327 37.0556C15.2833 37.1227 14.9279 37.3043 14.6353 37.8016C14.5921 37.8766 14.5155 37.922 14.433 37.922C14.3505 37.922 14.2739 37.8766 14.2307 37.7996C13.9381 37.3023 13.5827 37.1208 13.3333 37.0556C13.241 37.032 13.1663 36.9609 13.131 36.8642C13.0976 36.7675 13.1074 36.6609 13.1585 36.5741C13.3804 36.2071 13.8674 35.9525 14.431 35.9525C14.9966 35.9525 15.4836 36.2071 15.7036 36.5741C15.7586 36.659 15.7684 36.7675 15.735 36.8642ZM22.3806 26.184C22.0526 26.5649 21.7089 27.0523 21.5813 27.52C21.2258 28.8382 20.6072 30.0519 19.5252 30.8808C18.8261 31.4195 18.017 31.6899 17.2216 32.0332C16.7405 32.2405 16.3006 32.6608 15.9609 33.0614C15.9098 33.1226 15.8214 33.1364 15.7547 33.091C15.6879 33.0476 15.6643 32.9588 15.6977 32.8858C16.1828 31.7806 16.8171 30.7426 17.5614 29.8052C17.7872 29.5191 18.0248 29.2428 18.2703 28.9744C19.4015 27.745 20.729 26.7148 22.1881 25.9274C22.2117 25.9136 22.2372 25.9077 22.2608 25.9077C22.3099 25.9077 22.357 25.9294 22.3865 25.9708C22.4356 26.0379 22.4336 26.1248 22.3806 26.184ZM24.6939 17.5522C24.6841 17.6035 24.6448 17.643 24.5938 17.6548C24.5427 17.6666 24.4917 17.6449 24.4602 17.6035C24.1264 17.1318 23.7454 16.6957 23.3271 16.2813C23.2211 16.1767 23.1681 16.0287 23.1798 15.8807C23.2368 15.186 23.17 14.5052 22.9874 13.8776C22.9147 13.631 22.6692 13.5204 22.4375 13.629C22.0683 13.8026 21.7148 14.0237 21.3829 14.2881C21.2199 14.4184 20.9921 14.4341 20.8115 14.3256C20.5051 14.1401 20.1772 13.9566 19.8296 13.7809C19.7687 13.7494 19.7412 13.6763 19.7687 13.6132L19.8414 13.4376C21.599 9.18678 23.9084 6.0727 24.7686 5.40568C24.9198 5.28925 25.0985 5.27346 25.2517 5.36424C25.4068 5.45699 25.5187 5.64644 25.5619 5.88128C25.8192 7.29228 26.047 10.6767 24.6939 17.5522Z" fill="#252734"/>
<path d="M80.8646 29.5479C80.743 29.5479 80.6639 29.4884 80.6275 29.3694L80.0254 27.459C80.0011 27.4114 79.9707 27.3876 79.9342 27.3876H75.1181C75.0816 27.3876 75.0512 27.4114 75.0269 27.459L74.4248 29.3694C74.3883 29.4884 74.3093 29.5479 74.1877 29.5479H72.3634C72.2904 29.5479 72.2357 29.5301 72.1992 29.4944C72.1627 29.4467 72.1566 29.3813 72.1809 29.298L76.1397 17.2286C76.1762 17.1096 76.2552 17.0501 76.3768 17.0501H78.6572C78.7788 17.0501 78.8579 17.1096 78.8944 17.2286L82.8713 29.298C82.8835 29.3218 82.8896 29.3515 82.8896 29.3872C82.8896 29.4944 82.8227 29.5479 82.6889 29.5479H80.8646ZM75.5924 25.6557C75.5802 25.7272 75.6045 25.7629 75.6654 25.7629H79.3687C79.4417 25.7629 79.466 25.7272 79.4417 25.6557L77.5626 19.6746C77.5505 19.627 77.5322 19.6032 77.5079 19.6032C77.4836 19.6032 77.4653 19.627 77.4532 19.6746L75.5924 25.6557Z" fill="#252734"/>
<path d="M88.7248 29.6908C87.8126 29.6908 87.0099 29.5182 86.3167 29.173C85.6235 28.8159 85.0883 28.3219 84.7113 27.6911C84.3343 27.0603 84.1458 26.3282 84.1458 25.4951V21.0851C84.1458 20.2519 84.3343 19.5199 84.7113 18.889C85.0883 18.2582 85.6235 17.7702 86.3167 17.425C87.0099 17.0798 87.8126 16.9072 88.7248 16.9072C89.6248 16.9072 90.4214 17.0739 91.1146 17.4072C91.8079 17.7404 92.343 18.2106 92.72 18.8176C93.097 19.4247 93.2855 20.1269 93.2855 20.9244C93.2855 20.9839 93.2612 21.0375 93.2126 21.0851C93.1761 21.1208 93.1274 21.1387 93.0666 21.1387L91.3883 21.2279C91.2423 21.2279 91.1693 21.1625 91.1693 21.0315C91.1693 20.3293 90.9443 19.7639 90.4944 19.3354C90.0565 18.9069 89.4667 18.6927 88.7248 18.6927C87.9829 18.6927 87.387 18.9069 86.937 19.3354C86.487 19.7639 86.262 20.3293 86.262 21.0315V25.5843C86.262 26.2747 86.487 26.8341 86.937 27.2626C87.387 27.6911 87.9829 27.9053 88.7248 27.9053C89.4667 27.9053 90.0565 27.6971 90.4944 27.2805C90.9443 26.852 91.1693 26.2866 91.1693 25.5843C91.1693 25.4534 91.2423 25.3879 91.3883 25.3879L93.0666 25.4593C93.1274 25.4593 93.1761 25.4772 93.2126 25.5129C93.2612 25.5486 93.2855 25.5903 93.2855 25.6379C93.2855 26.4473 93.097 27.1614 92.72 27.7804C92.343 28.3874 91.8079 28.8576 91.1146 29.1908C90.4214 29.5241 89.6248 29.6908 88.7248 29.6908Z" fill="#252734"/>
<path d="M103.294 29.5479C103.173 29.5479 103.094 29.4884 103.057 29.3694L102.455 27.459C102.431 27.4114 102.4 27.3876 102.364 27.3876H97.5477C97.5112 27.3876 97.4808 27.4114 97.4565 27.459L96.8545 29.3694C96.818 29.4884 96.7389 29.5479 96.6173 29.5479H94.793C94.72 29.5479 94.6653 29.5301 94.6288 29.4944C94.5923 29.4467 94.5862 29.3813 94.6106 29.298L98.5693 17.2286C98.6058 17.1096 98.6848 17.0501 98.8065 17.0501H101.087C101.208 17.0501 101.288 17.1096 101.324 17.2286L105.301 29.298C105.313 29.3218 105.319 29.3515 105.319 29.3872C105.319 29.4944 105.252 29.5479 105.119 29.5479H103.294ZM98.022 25.6557C98.0099 25.7272 98.0342 25.7629 98.095 25.7629H101.798C101.871 25.7629 101.896 25.7272 101.871 25.6557L99.9923 19.6746C99.9801 19.627 99.9619 19.6032 99.9375 19.6032C99.9132 19.6032 99.895 19.627 99.8828 19.6746L98.022 25.6557Z" fill="#252734"/>
<path d="M107.425 29.5479C107.364 29.5479 107.31 29.5301 107.261 29.4944C107.224 29.4467 107.206 29.3932 107.206 29.3337V17.2643C107.206 17.2048 107.224 17.1572 107.261 17.1215C107.31 17.0739 107.364 17.0501 107.425 17.0501H111.876C112.74 17.0501 113.5 17.1989 114.157 17.4964C114.814 17.794 115.318 18.2225 115.671 18.7819C116.036 19.3294 116.218 19.9722 116.218 20.7102V25.8878C116.218 26.6258 116.036 27.2745 115.671 27.8339C115.318 28.3815 114.814 28.804 114.157 29.1016C113.5 29.3991 112.74 29.5479 111.876 29.5479H107.425ZM109.322 27.6732C109.322 27.7328 109.353 27.7625 109.414 27.7625H111.968C112.612 27.7625 113.123 27.5661 113.5 27.1733C113.889 26.7686 114.09 26.233 114.102 25.5665V21.0494C114.102 20.3709 113.907 19.8353 113.518 19.4425C113.129 19.0378 112.606 18.8355 111.949 18.8355H109.414C109.353 18.8355 109.322 18.8652 109.322 18.9248V27.6732Z" fill="#252734"/>
<path d="M127.131 18.6212C127.131 18.6808 127.106 18.7343 127.058 18.7819C127.021 18.8176 126.972 18.8355 126.912 18.8355H120.691C120.63 18.8355 120.6 18.8652 120.6 18.9248V22.2635C120.6 22.323 120.63 22.3527 120.691 22.3527H124.868C124.929 22.3527 124.978 22.3765 125.014 22.4242C125.063 22.4599 125.087 22.5075 125.087 22.567V23.9239C125.087 23.9834 125.063 24.037 125.014 24.0846C124.978 24.1203 124.929 24.1381 124.868 24.1381H120.691C120.63 24.1381 120.6 24.1679 120.6 24.2274V27.6732C120.6 27.7328 120.63 27.7625 120.691 27.7625H126.912C126.972 27.7625 127.021 27.7863 127.058 27.8339C127.106 27.8696 127.131 27.9173 127.131 27.9768V29.3337C127.131 29.3932 127.106 29.4467 127.058 29.4944C127.021 29.5301 126.972 29.5479 126.912 29.5479H118.702C118.642 29.5479 118.587 29.5301 118.538 29.4944C118.502 29.4467 118.483 29.3932 118.483 29.3337V17.2643C118.483 17.2048 118.502 17.1572 118.538 17.1215C118.587 17.0739 118.642 17.0501 118.702 17.0501H126.912C126.972 17.0501 127.021 17.0739 127.058 17.1215C127.106 17.1572 127.131 17.2048 127.131 17.2643V18.6212Z" fill="#252734"/>
<path d="M137.507 17.1929C137.568 17.0977 137.653 17.0501 137.763 17.0501H139.441C139.502 17.0501 139.55 17.0739 139.587 17.1215C139.635 17.1572 139.66 17.2048 139.66 17.2643V29.3337C139.66 29.3932 139.635 29.4467 139.587 29.4944C139.55 29.5301 139.502 29.5479 139.441 29.5479H137.763C137.702 29.5479 137.647 29.5301 137.598 29.4944C137.562 29.4467 137.544 29.3932 137.544 29.3337V20.8173C137.544 20.7816 137.525 20.7578 137.489 20.7459C137.465 20.734 137.446 20.7459 137.434 20.7816L135.154 24.2096C135.093 24.3048 135.008 24.3524 134.898 24.3524H134.059C133.95 24.3524 133.865 24.3048 133.804 24.2096L131.505 20.7994C131.493 20.7637 131.469 20.7518 131.432 20.7637C131.408 20.7756 131.396 20.7994 131.396 20.8351V29.3337C131.396 29.3932 131.371 29.4467 131.323 29.4944C131.286 29.5301 131.238 29.5479 131.177 29.5479H129.498C129.438 29.5479 129.383 29.5301 129.334 29.4944C129.298 29.4467 129.28 29.3932 129.28 29.3337V17.2643C129.28 17.2048 129.298 17.1572 129.334 17.1215C129.383 17.0739 129.438 17.0501 129.498 17.0501H131.177C131.286 17.0501 131.371 17.0977 131.432 17.1929L134.406 21.6029C134.43 21.6267 134.454 21.6386 134.479 21.6386C134.503 21.6386 134.521 21.6267 134.534 21.6029L137.507 17.1929Z" fill="#252734"/>
<path d="M145.604 29.5301C145.543 29.5301 145.489 29.5122 145.44 29.4765C145.404 29.4289 145.385 29.3753 145.385 29.3158V24.5309C145.385 24.4833 145.379 24.4476 145.367 24.4238L141.609 17.3C141.585 17.2524 141.572 17.2167 141.572 17.1929C141.572 17.0977 141.639 17.0501 141.773 17.0501H143.579C143.701 17.0501 143.786 17.1036 143.835 17.2108L146.389 22.192C146.425 22.2397 146.462 22.2397 146.498 22.192L149.07 17.2108C149.131 17.1036 149.216 17.0501 149.326 17.0501H151.15C151.235 17.0501 151.29 17.0739 151.314 17.1215C151.351 17.1691 151.351 17.2286 151.314 17.3L147.538 24.4238C147.514 24.4714 147.501 24.5071 147.501 24.5309V29.3158C147.501 29.3753 147.477 29.4289 147.428 29.4765C147.392 29.5122 147.343 29.5301 147.283 29.5301H145.604Z" fill="#252734"/>
<path d="M32.9899 29.6906V16.4948H37.4876L40.5256 21.4974H40.8017V16.4948H45.3783V29.6906H40.8609L37.8624 24.3138H37.5665V29.6906H32.9899Z" fill="#252734"/>
<path d="M51.148 25.2986V29.6906H46.5713V16.4948H51.148V21.1625H51.937L53.4165 16.4948H57.9537L55.8429 22.876L58.151 29.6906H53.5546L51.9568 25.2986H51.148Z" fill="#252734"/>
<path d="M58.1781 20.2172V16.4948H68.0415V20.2172H65.477V29.6906H60.9004V20.2172H58.1781Z" fill="#252734"/>
</svg>
