<svg width="337" height="198" viewBox="0 0 337 198" fill="none" xmlns="http://www.w3.org/2000/svg">
<mask id="mask0_296:6877" style="mask-type:alpha" maskUnits="userSpaceOnUse" x="-1" y="0" width="338" height="198">
<rect y="1" width="336" height="196.5" rx="24" fill="white" stroke="#E4E4E4"/>
</mask>
<g mask="url(#mask0_296:6877)">
<ellipse cx="264.501" cy="94.8924" rx="26.3889" ry="26.8924" fill="#286EF3" fill-opacity="0.03"/>
<ellipse cx="264.5" cy="73.5" rx="47.5" ry="48.5" fill="#286EF3" fill-opacity="0.03"/>
<ellipse cx="264.5" cy="39" rx="81.5" ry="83" fill="#286EF3" fill-opacity="0.03"/>
<path d="M312 157.168C312 172.996 290.734 171.498 264.5 171.498C238.266 171.498 217 172.996 217 157.168C217 141.339 238.266 128.508 264.5 128.508C290.734 128.508 312 141.339 312 157.168Z" fill="#286EF3" fill-opacity="0.03"/>
<path d="M351 180.954C351 209.648 312.273 206.931 264.5 206.931C216.727 206.931 178 209.648 178 180.954C178 152.261 216.727 129 264.5 129C312.273 129 351 152.261 351 180.954Z" fill="#286EF3" fill-opacity="0.03"/>
<path d="M413 218.254C413 267.548 346.514 262.882 264.5 262.882C182.486 262.882 116 267.548 116 218.254C116 168.961 182.486 129 264.5 129C346.514 129 413 168.961 413 218.254Z" fill="#286EF3" fill-opacity="0.03"/>
</g>
</svg>
