<svg width="337" height="198" viewBox="0 0 337 198" fill="none" xmlns="http://www.w3.org/2000/svg">
<mask id="mask0_296:6910" style="mask-type:alpha" maskUnits="userSpaceOnUse" x="-1" y="0" width="338" height="198">
<rect y="1" width="336" height="196.5" rx="24" fill="white" stroke="#E4E4E4"/>
</mask>
<g mask="url(#mask0_296:6910)">
<g opacity="0.08">
<path fill-rule="evenodd" clip-rule="evenodd" d="M266.622 77.7536L267.855 89.6202L263.826 90.8415C258.742 92.3827 253.731 96.5897 249.37 101.875C245.159 106.978 242.009 112.534 240.407 116.055C237.601 124.102 235.863 132.082 238.248 140.655C240.283 147.971 245.587 153.285 251.378 156.906C257.296 160.606 262.92 162.042 264.392 162.132C264.458 162.137 264.545 162.142 264.651 162.15C266.772 162.295 276.668 162.975 286.353 159.963C291.381 158.399 296.05 155.926 299.535 152.135C302.946 148.423 305.517 143.133 305.91 135.316C307.201 109.62 288.99 95.1659 279.909 91.237L276.623 89.8152L277.348 78.06C273.434 76.1444 269.421 76.6873 266.622 77.7536ZM258.297 70.6498C262.87 67.4981 274.805 63.0078 285.711 71.2928L287.885 72.9441L287.234 83.489C299.195 90.067 317.536 107.233 316.099 135.828C315.596 145.842 312.187 153.445 307.047 159.038C301.981 164.55 295.531 167.792 289.383 169.704C277.788 173.31 266.207 172.488 264.021 172.333C263.911 172.325 263.825 172.319 263.763 172.315C260.161 172.093 252.908 169.895 245.97 165.556C238.904 161.138 231.374 154.009 228.419 143.389C225.164 131.689 227.79 121.198 230.853 112.471L230.924 112.269L231.012 112.073C232.916 107.824 236.568 101.36 241.501 95.3817C245.519 90.5124 250.719 85.5587 256.872 82.6323L255.806 72.367L258.297 70.6498Z" fill="#FFAFBC"/>
<path d="M260.993 86.787L262.846 76.7857L280.442 73.083L281.367 84.1958L288.96 89.3825L305.998 105.868L311.923 128.65L309.143 149.023L289.879 164.95L258.208 166.243L238.391 154.017L230.984 134.94L240.247 106.418L260.993 86.787Z" fill="#FFAFBC"/>
<path fill-rule="evenodd" clip-rule="evenodd" d="M301.986 118.714C303.524 118.63 305.019 119.246 306.051 120.389L314.927 130.219L307.356 137.056L302.71 131.912L295.535 141.861C294.602 143.155 293.119 143.937 291.525 143.977C289.931 144.017 288.41 143.309 287.414 142.064L280.754 133.738L270.631 147.518C269.7 148.785 268.236 149.552 266.665 149.596C265.093 149.641 263.588 148.958 262.587 147.746L251.165 133.918L249.123 136.99C248.292 138.241 246.952 139.062 245.46 139.234C243.969 139.407 242.477 138.913 241.383 137.885L230.948 128.084L237.933 120.648L243.968 126.317L246.473 122.547C247.367 121.203 248.844 120.361 250.456 120.277C252.069 120.193 253.626 120.878 254.654 122.122L266.284 136.203L276.471 122.337C277.41 121.059 278.891 120.29 280.477 120.257C282.063 120.225 283.574 120.932 284.565 122.171L291.187 130.449L298.128 120.824C299.029 119.574 300.447 118.799 301.986 118.714Z" fill="white"/>
</g>
<g opacity="0.06">
<path fill-rule="evenodd" clip-rule="evenodd" d="M257.729 17.7987L260.73 46.6935L250.92 49.6673C238.54 53.42 226.338 63.664 215.72 76.5325C205.465 88.9601 197.795 102.487 193.896 111.061C187.063 130.655 182.831 150.087 188.638 170.961C193.594 188.775 206.509 201.716 220.61 210.533C235.019 219.542 248.713 223.037 252.297 223.258C252.459 223.268 252.669 223.283 252.928 223.3C258.093 223.655 282.19 225.309 305.773 217.975C318.014 214.167 329.385 208.147 337.87 198.914C346.175 189.877 352.436 176.996 353.393 157.96C356.537 95.3929 312.194 60.1971 290.081 50.6304L282.079 47.1683L283.846 18.5449C274.314 13.8804 264.544 15.2023 257.729 17.7987ZM237.458 0.50104C248.592 -7.17321 277.653 -18.1067 304.21 2.06688L309.503 6.08781L307.918 31.7643C337.042 47.7813 381.701 89.5793 378.203 159.207C376.977 183.592 368.676 202.105 356.161 215.723C343.826 229.145 328.119 237.04 313.151 241.695C284.918 250.476 256.717 248.473 251.395 248.096C251.127 248.076 250.916 248.062 250.767 248.052C241.996 247.511 224.335 242.159 207.44 231.595C190.236 220.838 171.899 203.477 164.706 177.619C156.78 149.13 163.174 123.585 170.632 102.333L170.804 101.842L171.017 101.366C175.655 91.0198 184.548 75.279 196.559 60.7225C206.342 48.8659 219.005 36.8038 233.988 29.6781L231.391 4.68251L237.458 0.50104Z" fill="#FFAFBC"/>
<path d="M244.023 39.7948L248.535 15.4418L291.38 6.42583L293.632 33.4853L312.122 46.1146L353.609 86.2563L368.036 141.729L361.266 191.337L314.36 230.118L237.241 233.268L188.988 203.499L170.952 157.045L193.508 87.5951L244.023 39.7948Z" fill="#FFAFBC"/>
</g>
<g opacity="0.06">
<path fill-rule="evenodd" clip-rule="evenodd" d="M262.498 47.9962L264.607 68.2933L257.716 70.3822C249.019 73.0183 240.448 80.2142 232.989 89.2537C225.786 97.9835 220.398 107.485 217.659 113.508C212.859 127.272 209.886 140.922 213.966 155.585C217.447 168.099 226.519 177.189 236.424 183.382C246.546 189.711 256.165 192.166 258.683 192.321C258.796 192.328 258.944 192.338 259.126 192.351C262.754 192.6 279.681 193.762 296.247 188.61C304.846 185.935 312.833 181.706 318.794 175.22C324.627 168.873 329.026 159.824 329.698 146.453C331.906 102.502 300.757 77.7789 285.225 71.0587L279.603 68.6268L280.844 48.5203C274.149 45.2438 267.286 46.1723 262.498 47.9962ZM248.259 35.8454C256.08 30.4547 276.494 22.7744 295.149 36.9453L298.867 39.7699L297.754 57.8063C318.212 69.0574 349.583 98.4184 347.125 147.328C346.265 164.457 340.433 177.462 331.642 187.028C322.977 196.456 311.944 202.002 301.429 205.272C281.597 211.44 261.788 210.034 258.05 209.768C257.861 209.755 257.713 209.744 257.608 209.738C251.447 209.358 239.041 205.598 227.173 198.177C215.088 190.621 202.207 178.426 197.154 160.262C191.587 140.25 196.079 122.306 201.317 107.377L201.438 107.032L201.588 106.698C204.845 99.4303 211.093 88.3732 219.53 78.148C226.402 69.8193 235.297 61.3463 245.822 56.3409L243.998 38.7827L248.259 35.8454Z" fill="#FFAFBC"/>
<path d="M252.87 63.4473L256.04 46.3406L286.136 40.0073L287.718 59.0153L300.706 67.8867L329.849 96.0842L339.983 135.051L335.228 169.898L302.278 197.14L248.106 199.353L214.211 178.441L201.542 145.81L217.386 97.0246L252.87 63.4473Z" fill="#FFAFBC"/>
</g>
</g>
</svg>
