<svg width="16" height="16" viewBox="0 0 16 16" fill="none" xmlns="http://www.w3.org/2000/svg">
<rect width="16" height="16" rx="6" fill="#FFA6AD"/>
<path fill-rule="evenodd" clip-rule="evenodd" d="M9.7266 5.46999C9.7266 5.02666 10.0866 4.66666 10.5299 4.66666C10.9733 4.66666 11.3333 5.02666 11.3333 5.46999C11.3333 5.91332 10.9733 6.27332 10.5299 6.27332C10.0866 6.27332 9.7266 5.91332 9.7266 5.46999ZM8.44323 8.91976L9.40656 7.67676L9.39323 7.68342C9.44656 7.61009 9.45656 7.51676 9.4199 7.43342C9.38356 7.35009 9.30323 7.29342 9.2169 7.28676C9.12656 7.27676 9.0369 7.31676 8.98323 7.39009L8.1769 8.43342L7.25323 7.70676C7.19656 7.66342 7.1299 7.64642 7.06323 7.65342C6.9969 7.66342 6.9369 7.69976 6.89656 7.75309L5.91023 9.03676L5.8899 9.06676C5.83323 9.17309 5.8599 9.30976 5.9599 9.38342C6.00656 9.41342 6.05656 9.43342 6.11323 9.43342C6.19023 9.43676 6.26323 9.39642 6.3099 9.33342L7.14656 8.25642L8.09656 8.97009L8.12656 8.98976C8.23323 9.04642 8.36656 9.02009 8.44323 8.91976ZM9.1499 5.26009C9.13657 5.34342 9.1299 5.42676 9.1299 5.51009C9.1299 6.26009 9.73657 6.86642 10.4832 6.86642C10.5666 6.86642 10.6466 6.85676 10.7299 6.84342V9.53309C10.7299 10.6634 10.0632 11.3334 8.9299 11.3334H6.4669C5.33323 11.3334 4.66656 10.6634 4.66656 9.53309V7.06676C4.66656 5.93342 5.33323 5.26009 6.4669 5.26009H9.1499Z" fill="white"/>
</svg>
