<svg width="64" height="64" viewBox="0 0 64 64" fill="none" xmlns="http://www.w3.org/2000/svg">
<circle cx="32" cy="32" r="31.5" fill="#343646" stroke="#585B67"/>
<path d="M45.9256 26.4133L36.9994 25.116L33.0092 17.0266C32.9002 16.8051 32.7209 16.6258 32.4994 16.5168C31.944 16.2426 31.269 16.4711 30.9912 17.0266L27.001 25.116L18.0748 26.4133C17.8287 26.4484 17.6037 26.5644 17.4315 26.7402C17.2232 26.9543 17.1084 27.2423 17.1124 27.5409C17.1164 27.8395 17.2387 28.1243 17.4526 28.3328L23.9108 34.6293L22.385 43.5203C22.3492 43.7271 22.3721 43.9398 22.451 44.1343C22.53 44.3288 22.6619 44.4973 22.8317 44.6206C23.0015 44.7439 23.2025 44.8172 23.4119 44.8322C23.6213 44.8471 23.8306 44.8031 24.0162 44.7051L32.0002 40.5074L39.9842 44.7051C40.2022 44.8211 40.4553 44.8598 40.6979 44.8176C41.3096 44.7121 41.7209 44.132 41.6155 43.5203L40.0897 34.6293L46.5479 28.3328C46.7237 28.1605 46.8397 27.9355 46.8748 27.6894C46.9697 27.0742 46.5408 26.5047 45.9256 26.4133Z" fill="#6241BB"/>
</svg>
