<svg width="18" height="18" viewBox="0 0 18 18" fill="#808191" xmlns="http://www.w3.org/2000/svg">
<path d="M9 14.625C10.9125 14.625 12.375 13.1625 12.375 11.25H5.625C5.625 13.1625 7.0875 14.625 9 14.625Z" fill="#808191"/>
<path fill-rule="evenodd" clip-rule="evenodd" d="M18 5.625C18 4.5 17.1 3.4875 15.975 3.375C14.2875 1.2375 11.7 0 9 0C6.3 0 3.7125 1.2375 2.025 3.375C0.9 3.4875 0 4.5 0 5.625V9C0 13.95 4.05 18 9 18C13.95 18 18 13.95 18 9V5.625ZM15.75 6.75V7.875H12.375V5.625H15.75V6.75ZM12.375 3.375H12.7125C11.5875 2.7 10.35 2.25 9 2.25C7.65 2.25 6.4125 2.7 5.2875 3.375H5.625C6.8625 3.375 7.875 4.3875 7.875 5.625H10.125C10.125 4.3875 11.1375 3.375 12.375 3.375ZM2.25 5.625H5.625V7.875H2.25V5.625ZM2.3625 10.125C2.925 13.275 5.625 15.75 9 15.75C12.375 15.75 15.075 13.275 15.6375 10.125H12.375C11.1375 10.125 10.125 9.1125 10.125 7.875H7.875C7.875 9.1125 6.8625 10.125 5.625 10.125H2.3625Z" />
</svg>
