<svg width="19" height="19" viewBox="0 0 19 19" fill="#808191" xmlns="http://www.w3.org/2000/svg">
<path fill-rule="evenodd" clip-rule="evenodd" d="M9.5 19C4.25329 19 0 17.1392 0 14.8438C0 12.5483 4.25329 10.6875 9.5 10.6875C14.7467 10.6875 19 12.5483 19 14.8438C19 17.1392 14.7467 19 9.5 19ZM15.2656 14.0807C13.8146 13.4459 11.7426 13.0625 9.5 13.0625C7.25735 13.0625 5.18541 13.4459 3.73443 14.0807C3.15915 14.3324 2.73384 14.6025 2.48688 14.8438C2.73384 15.085 3.15915 15.3551 3.73443 15.6068C5.18541 16.2416 7.25735 16.625 9.5 16.625C11.7426 16.625 13.8146 16.2416 15.2656 15.6068C15.8408 15.3551 16.2662 15.085 16.5131 14.8438C16.2662 14.6025 15.8408 14.3324 15.2656 14.0807ZM4.75 4.75C4.75 7.37335 6.87665 9.5 9.5 9.5C12.1234 9.5 14.25 7.37335 14.25 4.75C14.25 2.12665 12.1234 0 9.5 0C6.87665 0 4.75 2.12665 4.75 4.75ZM11.875 4.75C11.875 6.06168 10.8117 7.125 9.5 7.125C8.18832 7.125 7.125 6.06168 7.125 4.75C7.125 3.43832 8.18832 2.375 9.5 2.375C10.8117 2.375 11.875 3.43832 11.875 4.75Z" />
</svg>
