<svg width="18" height="18"  viewBox="0 0 18 18" fill="#808191" xmlns="http://www.w3.org/2000/svg">
<path fill-rule="evenodd" clip-rule="evenodd" d="M4.18348 15.3252L4.95291 15.3458C5.14667 15.3509 5.32467 15.4518 5.42612 15.614L5.82894 16.2579C6.13498 16.7472 6.55414 17.1587 7.05244 17.4592C8.80377 18.5152 11.0955 17.9774 12.1711 16.2579L12.5739 15.614C12.6753 15.4518 12.8533 15.3509 13.0471 15.3458L13.8165 15.3252C14.4011 15.3096 14.9737 15.159 15.4879 14.8855C17.295 13.9245 17.9665 11.707 16.9876 9.93272L16.621 9.26824C16.5287 9.1009 16.5287 8.8991 16.621 8.73176L16.9876 8.06728C17.2661 7.56245 17.4195 7.00028 17.4354 6.42635C17.4913 4.40924 15.871 2.7296 13.8165 2.67478L13.0471 2.65425C12.8533 2.64907 12.6753 2.54818 12.5739 2.38601L12.1711 1.74206C11.865 1.25282 11.4459 0.841285 10.9476 0.540814C9.19623 -0.515222 6.90454 0.0225933 5.82894 1.74206L5.42612 2.38601C5.32467 2.54818 5.14667 2.64907 4.95291 2.65425L4.18348 2.67478C3.59892 2.69037 3.02633 2.84101 2.51214 3.11446C0.704977 4.07554 0.0335286 6.293 1.01242 8.06728L1.37902 8.73176C1.47135 8.8991 1.47135 9.1009 1.37902 9.26824L1.01242 9.93272C0.733899 10.4376 0.580474 10.9997 0.564587 11.5736C0.50875 13.5908 2.12898 15.2704 4.18348 15.3252ZM7.3813 14.435C6.87408 13.6242 5.98408 13.1197 5.01524 13.0938L4.24582 13.0733C3.45807 13.0523 2.83682 12.4083 2.85823 11.6349C2.86432 11.4148 2.92315 11.1992 3.02994 11.0057L3.39654 10.3412C3.85816 9.50449 3.85816 8.49551 3.39654 7.65881L3.02994 6.99433C2.65461 6.31402 2.91206 5.46378 3.60498 5.09527C3.80213 4.99042 4.02168 4.93267 4.24582 4.92669L5.01524 4.90616C5.98408 4.8803 6.87408 4.37581 7.3813 3.56497L7.78412 2.92102C8.19654 2.26172 9.07524 2.05551 9.74675 2.46042C9.93781 2.57563 10.0985 2.73343 10.2159 2.92102L10.6187 3.56497C11.1259 4.37581 12.0159 4.8803 12.9848 4.90616L13.7542 4.92669C14.5419 4.94771 15.1632 5.59173 15.1418 6.36515C15.1357 6.58521 15.0769 6.80076 14.9701 6.99433L14.6035 7.65881C14.1418 8.49551 14.1418 9.50449 14.6035 10.3412L14.9701 11.0057C15.3454 11.686 15.0879 12.5362 14.395 12.9047C14.1979 13.0096 13.9783 13.0673 13.7542 13.0733L12.9848 13.0938C12.0159 13.1197 11.1259 13.6242 10.6187 14.435L10.2159 15.079C9.80346 15.7383 8.92476 15.9445 8.25325 15.5396C8.06219 15.4244 7.90147 15.2666 7.78412 15.079L7.3813 14.435ZM9 12.375C7.13604 12.375 5.625 10.864 5.625 9C5.625 7.13604 7.13604 5.625 9 5.625C10.864 5.625 12.375 7.13604 12.375 9C12.375 10.864 10.864 12.375 9 12.375ZM10.125 9C10.125 9.62132 9.62132 10.125 9 10.125C8.37868 10.125 7.875 9.62132 7.875 9C7.875 8.37868 8.37868 7.875 9 7.875C9.62132 7.875 10.125 8.37868 10.125 9Z" />
</svg>
